<?xml version="1.0" standalone="no"?>
<!DOCTYPE svg PUBLIC "-//W3C//DTD SVG 20010904//EN"
 "http://www.w3.org/TR/2001/REC-SVG-20010904/DTD/svg10.dtd">
<svg version="1.0" xmlns="http://www.w3.org/2000/svg"
 width="500.000000pt" height="500.000000pt" viewBox="0 0 500.000000 500.000000"
 preserveAspectRatio="xMidYMid meet">

<g transform="translate(0.000000,500.000000) scale(0.100000,-0.100000)"
fill="#000000" stroke="none">
<path d="M2318 4980 c-225 -38 -440 -185 -576 -392 -132 -204 -182 -425 -182
-815 l0 -183 -620 0 -620 0 0 -1458 c0 -1421 1 -1461 20 -1538 72 -287 301
-511 582 -569 64 -13 268 -15 1608 -13 l1535 3 70 23 c251 84 427 264 516 527
l24 70 3 1477 2 1478 -622 2 -623 3 -6 255 c-7 327 -27 428 -124 625 -126 256
-374 449 -643 501 -78 15 -266 17 -344 4z m317 -316 c198 -51 373 -223 440
-436 38 -119 45 -186 45 -420 l0 -218 -625 0 -625 0 0 193 c0 283 20 414 84
552 84 179 228 300 408 340 73 17 181 12 273 -11z m-296 -1979 c69 -40 76 -61
76 -210 0 -120 -2 -136 -21 -162 -43 -58 -38 -58 -536 -61 l-458 -3 0 -129 0
-130 263 -1 c377 -1 408 -8 452 -95 30 -60 28 -221 -3 -286 -42 -84 -34 -83
-394 -86 l-317 -3 -3 -297 c-3 -273 -5 -300 -23 -337 -31 -63 -76 -80 -210
-80 -133 0 -178 17 -210 81 -20 38 -20 59 -20 859 0 877 -1 868 50 915 50 47
78 49 720 47 580 -2 601 -3 634 -22z m1262 15 c200 -38 396 -233 438 -438 26
-126 8 -259 -51 -377 l-31 -63 30 -43 c86 -125 118 -226 116 -369 -1 -83 -6
-122 -27 -186 -59 -185 -212 -341 -391 -397 -68 -21 -83 -22 -520 -22 -438 0
-451 1 -490 21 -22 12 -49 36 -60 55 -20 33 -20 52 -20 874 0 785 1 842 18
872 20 38 54 62 100 73 49 12 826 12 888 0z"/>
<path d="M3059 2243 c-2 -4 -3 -228 -1 -496 l3 -489 237 4 c259 4 280 8 317
65 27 41 32 167 8 213 -24 47 -60 62 -172 70 -161 11 -194 41 -199 178 -5 149
29 183 197 200 111 12 129 24 137 99 8 67 -8 114 -49 138 -29 18 -55 20 -253
23 -122 2 -223 0 -225 -5z"/>
</g>
</svg>
